PathFileType	4	(X/Y/Z)	RBDS028\RBDS028runT35.trc
DataRate	CameraRate	NumFrames	NumMarkers	Units	OrigDataRate	OrigDataStartFrame	OrigNumFrames
150.000000	150.000000	4	33	mm	150.000000	0	4500
Frame#	Time	L.ASIS			L.Heel.Bottom			L.Heel.Lateral			L.Heel.Top			L.Iliac.Crest			L.MT1			L.MT5			L.PSIS			L.Shank.Bottom.Lateral			L.Shank.Bottom.Medial			L.Shank.Top.Lateral			L.Shank.Top.Medial			L.Thigh.Bottom.Lateral			L.Thigh.Bottom.Medial			L.Thigh.Top.Lateral			L.Thigh.Top.Medial			R.ASIS			R.ASY			R.Heel.Bottom			R.Heel.Lateral			R.Heel.Top			R.Iliac.Crest			R.MT1			R.MT5			R.PSIS			R.Shank.Bottom.Lateral			R.Shank.Bottom.Medial			R.Shank.Top.Lateral			R.Shank.Top.Medial			R.Thigh.Bottom.Lateral			R.Thigh.Bottom.Medial			R.Thigh.Top.Lateral			R.Thigh.Top.Medial			
		X1	Y1	Z1	X2	Y2	Z2	X3	Y3	Z3	X4	Y4	Z4	X5	Y5	Z5	X6	Y6	Z6	X7	Y7	Z7	X8	Y8	Z8	X9	Y9	Z9	X10	Y10	Z10	X11	Y11	Z11	X12	Y12	Z12	X13	Y13	Z13	X14	Y14	Z14	X15	Y15	Z15	X16	Y16	Z16	X17	Y17	Z17	X18	Y18	Z18	X19	Y19	Z19	X20	Y20	Z20	X21	Y21	Z21	X22	Y22	Z22	X23	Y23	Z23	X24	Y24	Z24	X25	Y25	Z25	X26	Y26	Z26	X27	Y27	Z27	X28	Y28	Z28	X29	Y29	Z29	X30	Y30	Z30	X31	Y31	Z31	X32	Y32	Z32	X33	Y33	Z33	

1	0	1936.948133997489	882.0363232010418	904.2297536991823	2042.175848485925	46.02704899148049	950.2629293322651	2074.567078712204	61.10442386062073	908.2135516617112	2047.362958751735	90.96734482166239	946.0497752689598	1867.870113892105	936.8481625644617	867.6100189512817	2253.986078542685	83.57117441621074	1011.439813627157	2230.602983964502	61.50506896002797	902.3013003080981	1781.83938456844	901.2228183953888	966.3040246738876	2096.793170647181	190.7245373472488	892.8931152985176	2055.587657858608	184.2625173572996	922.4283329473755	2074.548001239925	265.4917295903833	872.4745408653774	2033.8954069713	264.8207077650193	906.9514359454319	2039.164668775048	581.8648069139603	851.7409831781526	1980.801906843906	546.9567229082478	877.5589910555276	1979.782607575319	673.6689436353673	840.6043432508092	1922.857730805829	639.5617361727309	863.298154681721	1931.209358810019	865.9441728219127	1133.645967757198	1431.209704484219	150.3529641317958	1051.388230498346	1325.160452282694	302.2771785310263	1010.777271674017	1340.324530092999	279.966808594438	1059.315207775844	1368.756075756444	307.8550695533885	1023.703051499333	1905.206058001712	936.0520969527474	1150.474199679506	1417.396808161066	103.135672051055	994.6420614827147	1366.855314960386	130.8114195614063	1092.323699054148	1784.595842770357	905.9332272613182	1060.985519070501	1456.181743970861	311.7656203207969	1093.298572629332	1440.392206451239	339.683172667903	1048.276346238123	1508.754902224218	371.6257616905257	1109.830754463576	1493.416382527492	397.4625121337249	1065.076210735657	1747.892799439757	562.9967471106676	1146.189419641671	1698.130317151842	588.7877148186734	1101.842888084556	1783.855070131456	665.8872352430931	1164.632945707675	1736.094978641273	689.9721581116053	1121.627882907434	
2	0.006666666666666667	1936.352282002744	881.4113834525299	903.9047920041654	2044.046989908192	44.18349112048377	956.2457604252801	2075.908704067502	57.03494360333251	913.1230592281086	2049.498799508457	88.6730068381416	949.8974902286835	1866.980544305641	935.5943937118161	867.8317550126065	2256.532141735522	82.5201632635994	1013.384069356917	2231.849199534887	56.07169878018001	905.6147059642637	1781.785997906857	899.7858659204237	967.2222700042519	2096.428633748603	187.6744052222897	895.0606508560902	2056.264161549594	181.0085432627686	925.864279238227	2073.156521020033	262.3352980055601	875.0761307896844	2033.504299588675	261.5235665866256	910.6876077576012	2036.9186660158	579.5597555693907	851.8836941766911	1978.266354127887	545.1631543432012	878.003634208264	1978.029778538686	671.6158197983785	840.299383099339	1921.088652319316	638.036584792044	863.5310918745665	1933.020087845325	865.6844816398373	1133.464439034285	1425.889956321677	163.244087946165	1052.367334896339	1325.096538969633	318.1994938943413	1010.813048624339	1340.329549634392	296.2077546606442	1059.325030127424	1369.069952516395	322.3004366030415	1022.870490229523	1904.157038992118	936.1816993772338	1150.357404909266	1409.138808290157	115.6742914508532	996.8094902447446	1361.752531123631	146.9482638274995	1094.868222091163	1785.461640217156	904.7601348325602	1061.85241755663	1457.182191785673	321.0910306196935	1093.298880344885	1442.841511044692	350.2580152089642	1048.60318541203	1512.578270863269	377.8885017195408	1110.299647577031	1498.560809565183	404.9201049058497	1065.916357991421	1756.732814279282	557.2804332491603	1147.801961634695	1705.385457283164	582.0941404763613	1104.622325541198	1790.33260108516	660.9280573836227	1166.212206112453	1741.001895905358	684.0285233832503	1124.712533036488	
3	0.01333333333333333	1935.743897411391	880.6508275840931	903.5558476794956	2044.804060051861	42.34277199707731	962.1564698140066	2076.135519980575	53.15525389505899	918.0220251817657	2050.565255070761	86.41263686842667	953.8904243833919	1866.05974498666	934.2532547048082	868.0486774452828	2258.003783083829	81.03917437158641	1015.402748365241	2231.959257020837	50.80525125599367	908.8371979310228	1781.736947785239	898.1890513036126	968.1484266453737	2095.377721224793	184.4978969783199	897.391355768733	2056.174953586812	177.757053511714	929.3796042189176	2071.284970546462	259.0827935008633	877.7355893526741	2032.582823013746	258.2495654384097	914.413571548843	2034.65301584762	577.1374705844144	852.0332079149474	1975.750127352966	543.2412875778608	878.483877059807	1976.236388820149	669.434899430013	840.0442281108806	1919.294315686621	636.3663354809008	863.8188476098485	1934.820987856144	865.3067287856707	1133.281831847785	1421.076392498461	176.0196683658307	1053.33354932928	1325.770943426055	334.0173434339511	1010.912596322864	1341.014262978314	312.2797513192591	1059.389203461473	1370.079155322972	336.5854231315251	1022.151958096522	1903.196710440651	936.1463407355702	1150.26559710431	1401.389717476434	128.2099271893168	998.924268394278	1357.164607739974	162.9816964051786	1097.338826997555	1786.334423012737	903.4020103436793	1062.721993185575	1458.688611460034	330.289594818247	1093.381296788556	1445.819188135985	360.6613601668753	1049.000310351616	1516.851839004683	384.0024561438435	1110.854291638879	1504.179546395849	412.1884427353297	1066.831252361836	1765.640383422505	551.5371779059674	1149.462537199234	1712.809130671296	575.2869783145584	1107.328853613457	1796.803053407501	655.9369976038416	1167.756614853819	1745.985488768487	677.9771547720901	1127.639086432707	
4	0.02	1935.100648144151	879.6247004257758	903.152283556191	2043.452946439656	40.50535144800605	967.9186660822846	2074.256586630922	49.6353763793773	922.8919827283321	2049.602990022629	84.21444356821065	958.1463080094516	1865.086638104674	932.7067997475682	868.2579363896692	2257.438505818217	78.77718765714013	1017.555383430421	2229.926441162335	45.86714017443973	911.8881718671031	1781.689988641966	896.2701411139506	969.1021914134195	2093.0388673663	181.087702849909	900.0204635525854	2054.643913008649	174.5181654538936	933.0257697350894	2068.526684824766	255.6512679885674	880.4941504915391	2030.674088826197	255.0255062739326	918.1018681710548	2032.364026343708	574.4851070209064	852.2003722847685	1973.28992918003	541.0681165846888	879.0473327355999	1974.372042236102	667.0029592556912	839.8824796533324	1917.463159147488	634.4119003903704	864.2173932913759	1936.60800074429	864.688430419866	1133.08718627075	1417.222420978952	188.5926573783067	1054.284233760791	1327.861833759544	349.6469643169207	1011.114430211195	1342.997362846195	328.0509101067129	1059.552716440856	1372.420211376736	350.5725532527002	1021.633671089199	1902.42884439622	935.7663809269836	1150.222431758406	1394.608490504146	140.7560745443571	1000.952360931716	1353.552048415688	178.8453181375895	1099.675846051509	1787.21596299765	901.6715465863035	1063.604292036088	1461.158543361907	339.2527192289808	1093.615024750424	1449.811158691137	370.7395424503601	1049.525771847144	1521.97963505696	389.8295437215904	1111.571757107445	1510.7061216518	419.0870666569031	1067.884955829353	1774.659520164724	545.7163313637575	1151.224045754544	1720.535974293605	568.2424611954347	1109.904085463717	1803.249502301938	650.8653807730828	1169.241938893166	1751.105418263928	671.704323763611	1130.267221201436	
